<?xml version="1.0" encoding="utf-8"?>
<!-- Generator: Adobe Illustrator 24.1.1, SVG Export Plug-In . SVG Version: 6.00 Build 0)  -->
<svg version="1.1" id="Livello_1" xmlns="http://www.w3.org/2000/svg" xmlns:xlink="http://www.w3.org/1999/xlink" x="0px" y="0px"
	 viewBox="0 0 500 500" style="enable-background:new 0 0 500 500;" xml:space="preserve">
<g>
	<g>
		<g>
			<path d="M330.32,71.84l0.73,0c5.55,0,8.54,3.58,9.57,5.12c1.03,1.54,3.19,5.67,1.08,10.8l-28.33,68.72
				c-3.32,8.06-2.41,17.19,2.44,24.44c4.85,7.24,12.95,11.57,21.66,11.57h83.58c9.24,0,17.66,4.28,23.12,11.73
				c5.45,7.45,6.98,16.78,4.18,25.58L408.48,355.3c-3.35,10.54-9.83,19.55-18.75,26.08c-8.92,6.53-19.48,9.98-30.53,9.98h-60.94
				c-40.1,0-83.14-3.43-107.1-8.54c-3.05-0.65-5.27-3.39-5.27-6.52l0-156.49c0-8.42,3.5-16.57,9.6-22.37
				C227.83,166.7,301.7,95.61,323.57,74.55C325.39,72.8,327.78,71.84,330.32,71.84L330.32,71.84 M330.31,52.3
				c-7.57,0-14.84,2.93-20.29,8.18c-24.58,23.67-96.05,92.45-127.99,122.8c-10.01,9.52-15.68,22.72-15.68,36.53l0,156.49
				c0,12.36,8.64,23.05,20.73,25.62c26.83,5.72,72.58,8.97,111.17,8.97h60.94c31.04,0,58.51-20.1,67.9-49.68l39.86-125.51
				c9.87-31.07-13.32-62.76-45.92-62.76h-83.58c-4.65,0-7.81-4.72-6.04-9.02l28.33-68.72c8.42-20.44-6.59-42.89-28.7-42.9l-0.73,0
				C330.32,52.3,330.32,52.3,330.31,52.3L330.31,52.3z"/>
		</g>
	</g>
	<g>
		<g>
			<path d="M120.92,197.96c4.48,0,8.12,3.64,8.12,8.12V381c0,4.48-3.64,8.12-8.12,8.12H60.63c-4.48,0-8.12-3.64-8.12-8.12V206.08
				c0-4.48,3.64-8.12,8.12-8.12H120.92 M120.92,176.19H60.63c-16.51,0-29.89,13.38-29.89,29.89V381c0,16.51,13.38,29.89,29.89,29.89
				h60.28c16.51,0,29.89-13.38,29.89-29.89V206.08C150.81,189.58,137.42,176.19,120.92,176.19L120.92,176.19z"/>
		</g>
	</g>
</g>
</svg>
